<?xml version="1.0" standalone="no"?>
<!DOCTYPE svg PUBLIC "-//W3C//DTD SVG 20010904//EN"
 "http://www.w3.org/TR/2001/REC-SVG-20010904/DTD/svg10.dtd">
<svg version="1.0" xmlns="http://www.w3.org/2000/svg"
 width="1920.000000pt" height="1920.000000pt" viewBox="0 0 1920.000000 1920.000000"
 preserveAspectRatio="xMidYMid meet">
<metadata>
Created by potrace 1.16, written by Peter Selinger 2001-2019
</metadata>
<g transform="translate(0.000000,1920.000000) scale(0.100000,-0.100000)"
fill="#000000" stroke="none">
<path d="M0 9600 l0 -9600 9600 0 9600 0 0 9600 0 9600 -9600 0 -9600 0 0
-9600z m10270 5020 c203 -11 623 -60 719 -85 31 -7 85 -19 121 -25 144 -24
443 -116 619 -189 451 -188 822 -476 1064 -827 81 -118 97 -145 159 -263 170
-328 255 -655 288 -1106 37 -515 -34 -921 -228 -1296 -177 -342 -478 -679
-794 -889 -37 -25 -68 -48 -68 -52 0 -4 30 -24 68 -44 191 -105 374 -244 550
-417 380 -374 623 -868 709 -1437 37 -248 42 -553 14 -805 -35 -307 -51 -393
-119 -620 -192 -649 -606 -1171 -1208 -1525 -38 -22 -121 -66 -184 -96 -422
-206 -843 -317 -1421 -376 -160 -16 -3798 -24 -3873 -8 -64 13 -121 58 -147
114 -18 39 -19 92 -19 1104 l0 1062 -582 0 c-355 0 -600 4 -627 11 -64 14
-122 59 -151 115 l-25 49 0 550 0 550 23 42 c23 44 50 74 92 102 21 14 91 17
645 21 l620 5 5 3105 c4 2432 8 3110 17 3126 18 32 101 102 126 107 49 10
3421 6 3607 -3z"/>
<path d="M8224 13151 c-2 -2 -4 -595 -4 -1318 l0 -1313 914 0 c752 0 939 3
1053 15 141 16 311 42 325 51 4 3 45 16 91 29 515 150 858 528 923 1020 18
133 14 421 -7 550 -84 517 -387 799 -984 916 -194 38 -288 42 -1115 45 -448 2
-900 5 -1003 7 -104 1 -191 0 -193 -2z"/>
<path d="M8220 8670 l0 -390 700 0 c769 0 735 3 799 -61 63 -63 61 -44 61
-656 0 -521 -2 -561 -19 -598 -22 -48 -53 -78 -106 -102 -37 -17 -91 -18 -737
-21 l-698 -3 0 -409 0 -410 994 0 c1036 0 1142 4 1376 46 219 39 449 128 608
234 131 86 268 212 330 304 102 148 151 242 197 381 109 326 109 799 0 1158
-145 478 -474 763 -1005 870 -217 44 -296 47 -1427 47 l-1073 0 0 -390z"/>
</g>
</svg>
